<mxfile host="app.diagrams.net" modified="2023-10-16T22:28:45.256Z" agent="Mozilla/5.0 (Macintosh; Intel Mac OS X 10.15; rv:109.0) Gecko/20100101 Firefox/118.0" version="21.8.0" etag="PDQ3ieSM1vRa8ftGIYO-" type="github">
  <diagram name="Page-1" id="s-hDrLyzWqI7eXGrk5F4">
    <mxGraphModel>
      <root>
        <mxCell id="0" />
        <mxCell id="1" parent="0" />
      </root>
    </mxGraphModel>
  </diagram>
</mxfile>
